<svg xmlns="http://www.w3.org/2000/svg" width="900" height="240" viewBox="0 0 900 240" role="img" aria-label="Certifications">
  <title>Certifications</title>
  <rect width="900" height="240" fill="#0d1117"/>
  <text x="20" y="38" font-family="Copperplate, 'Copperplate Gothic Bold', 'Century Gothic', Futura, sans-serif" font-size="22" letter-spacing="2.6" fill="#7fe7ff">CERTIFICATIONS</text>
  <rect x="20" y="52" width="860" height="1" fill="#1b2637"/>
  <rect x="22" y="84" width="10" height="10" rx="2" fill="#0467DF"/>
  <text x="42" y="93" font-family="Georgia, 'Times New Roman', serif" font-size="15" fill="#cbd6e6">Meta Front-End Developer Professional Certificate</text>
  <text x="880" y="92" text-anchor="end" font-family="Consolas, 'Lucida Console', 'Courier New', monospace" font-size="11" letter-spacing="1.3" fill="#5b6b85">META</text>
  <rect x="20" y="106" width="860" height="1" fill="#161f2e"/>
  <rect x="22" y="118" width="10" height="10" rx="2" fill="#4285F4"/>
  <text x="42" y="127" font-family="Georgia, 'Times New Roman', serif" font-size="15" fill="#cbd6e6">Google UX Design Professional Certificate</text>
  <text x="880" y="126" text-anchor="end" font-family="Consolas, 'Lucida Console', 'Courier New', monospace" font-size="11" letter-spacing="1.3" fill="#5b6b85">GOOGLE</text>
  <rect x="20" y="140" width="860" height="1" fill="#161f2e"/>
  <rect x="22" y="152" width="10" height="10" rx="2" fill="#E37400"/>
  <text x="42" y="161" font-family="Georgia, 'Times New Roman', serif" font-size="15" fill="#cbd6e6">Google Analytics Certification</text>
  <text x="880" y="160" text-anchor="end" font-family="Consolas, 'Lucida Console', 'Courier New', monospace" font-size="11" letter-spacing="1.3" fill="#5b6b85">GOOGLE</text>
  <rect x="20" y="174" width="860" height="1" fill="#161f2e"/>
  <rect x="22" y="186" width="10" height="10" rx="2" fill="#0A0A23"/>
  <text x="42" y="195" font-family="Georgia, 'Times New Roman', serif" font-size="15" fill="#cbd6e6">Responsive Web Design Certification</text>
  <text x="880" y="194" text-anchor="end" font-family="Consolas, 'Lucida Console', 'Courier New', monospace" font-size="11" letter-spacing="1.3" fill="#5b6b85">FREECODECAMP</text>
  <rect x="20" y="208" width="860" height="1" fill="#161f2e"/>
</svg>
